<svg width="32" height="32" viewBox="0 0 32 32" fill="none" xmlns="http://www.w3.org/2000/svg">
<path d="M18.6667 12.0002V11.4668C18.6667 10.7201 18.6667 10.3467 18.5213 10.0615C18.3935 9.81063 18.1895 9.60665 17.9387 9.47882C17.6534 9.3335 17.2801 9.3335 16.5333 9.3335H15.4667C14.7199 9.3335 14.3466 9.3335 14.0613 9.47882C13.8105 9.60665 13.6065 9.81063 13.4787 10.0615C13.3333 10.3467 13.3333 10.7201 13.3333 11.4668V12.0002M14.6667 15.6668V19.0002M17.3333 15.6668V19.0002M10 12.0002H22M20.6667 12.0002V19.4668C20.6667 20.5869 20.6667 21.147 20.4487 21.5748C20.2569 21.9511 19.951 22.2571 19.5746 22.4488C19.1468 22.6668 18.5868 22.6668 17.4667 22.6668H14.5333C13.4132 22.6668 12.8532 22.6668 12.4254 22.4488C12.049 22.2571 11.7431 21.9511 11.5513 21.5748C11.3333 21.147 11.3333 20.5869 11.3333 19.4668V12.0002" stroke="white" stroke-width="1.5" stroke-linecap="round" stroke-linejoin="round"/>
</svg>
