<svg width="20" height="20" viewBox="0 0 20 20" fill="none" xmlns="http://www.w3.org/2000/svg">
<path d="M3.33317 16.6668C2.87484 16.6668 2.48248 16.5036 2.15609 16.1772C1.8297 15.8509 1.6665 15.4585 1.6665 15.0002V5.00016C1.6665 4.54183 1.8297 4.14947 2.15609 3.82308C2.48248 3.49669 2.87484 3.3335 3.33317 3.3335H8.33317L9.99984 5.00016H16.6665C17.1248 5.00016 17.5172 5.16336 17.8436 5.48975C18.17 5.81614 18.3332 6.2085 18.3332 6.66683V15.0002C18.3332 15.4585 18.17 15.8509 17.8436 16.1772C17.5172 16.5036 17.1248 16.6668 16.6665 16.6668H3.33317ZM3.33317 15.0002H16.6665V6.66683H9.31234L7.64567 5.00016H3.33317V15.0002Z" fill="white"/>
</svg>
