<svg width="1361" height="607" viewBox="0 0 1361 607" fill="none" xmlns="http://www.w3.org/2000/svg">
<path d="M926.912 184.063V263.722H905.299V432.851C902.653 501.466 856.793 561.124 776.659 561.124C732.374 561.124 694.412 545.407 668.577 513.459L730.257 462.122C739.222 476.271 759.781 481.515 776.659 481.515C808.287 481.515 825.161 455.357 825.161 421.806C810.921 428.081 797.217 433.85 778.764 433.85C702.839 433.85 651.174 380.952 651.174 303.433C651.174 238.48 708.621 179.782 778.238 179.782C803.011 179.782 824.099 188.176 845.712 200.22C858.372 189.222 872.605 183.979 888.425 183.979L926.912 184.063ZM825.114 278.869C819.308 260 797.17 251.107 778.187 251.107C752.348 251.107 728.105 273.103 728.105 302.434C728.105 333.858 749.718 353.761 780.762 353.761C799.216 353.761 817.132 348.518 825.042 330.196L825.114 278.869ZM1241.09 351.145V430.806H1194.69C1162.01 430.806 1135.64 401.986 1134.06 368.468V287.763C1134.06 269.441 1117.19 255.816 1095.58 255.816C1070.27 255.816 1059.19 267.337 1051.3 285.67V430.723H971.11V133.782H950.117V53.6465H988.067C1004.82 53.697 1020.88 60.3303 1032.72 72.0988C1044.57 83.867 1051.25 99.8144 1051.31 116.459V197.64C1068.17 185.073 1086.62 181.411 1109.29 181.411C1162.02 181.411 1214.21 223.31 1214.21 275.16V351.11L1241.09 351.145ZM1297.03 183.04C1331.83 183.04 1360.3 210.802 1360.3 245.364V430.841H1280.12V262.628H1256.44V183.04H1297.03ZM1274.89 118.088C1274.9 107.256 1279.24 96.8708 1286.95 89.2104C1294.66 81.5501 1305.11 77.2393 1316.01 77.2235C1338.68 77.2235 1356.6 95.0578 1356.6 118.076C1356.65 123.384 1355.63 128.648 1353.6 133.561C1351.58 138.474 1348.59 142.938 1344.81 146.692C1341.03 150.447 1336.54 153.417 1331.6 155.43C1326.65 157.442 1321.35 158.458 1316.01 158.417C1310.64 158.474 1305.31 157.472 1300.32 155.47C1295.34 153.469 1290.81 150.506 1286.99 146.754C1283.16 143.002 1280.12 138.536 1278.05 133.611C1275.97 128.687 1274.9 123.403 1274.89 118.064V118.088Z" fill="#C0022C"></path>
<path d="M282.566 0.818359C438.472 0.818359 564.858 127.205 564.858 283.11C564.858 439.016 438.472 565.401 282.566 565.401C126.661 565.401 0.275539 439.015 0.275391 283.11C0.275391 127.205 126.661 0.818606 282.566 0.818359ZM334.776 84.8965L333.58 86.5977L332.383 88.25L331.102 89.9502L329.737 91.6025L328.361 93.1719L326.938 94.8125L325.525 96.4658L324.005 98.1299L322.533 99.7236L321.062 101.388L319.505 102.945L318.033 104.598L316.466 106.251L314.993 107.903L313.533 109.556L312.05 111.161L310.638 112.861L309.213 114.514L307.896 116.262L306.568 117.962L305.371 119.721L304.175 121.48L303.05 123.229L301.973 125.024L300.991 126.879L300.058 128.722L299.279 130.576L298.538 132.515L297.951 134.417L297.413 136.449L297.065 138.447L297.999 140.064L298.98 141.562L299.962 143.12L301.039 144.677L302.116 146.188L303.241 147.697L304.438 149.267L305.635 150.717L306.832 152.227L308.028 153.737L309.225 155.188L310.422 156.649L311.618 158.16L312.887 159.622L314.084 161.12L315.316 162.737L316.514 164.199L317.782 165.71L318.979 167.208L320.176 168.67L321.372 170.228L322.569 171.726L323.766 173.236L324.891 174.793L325.968 176.398L328.122 179.514L329.056 181.178L330.025 182.771L330.91 184.483L331.844 186.136L332.622 187.836L333.46 189.025L334.189 190.214L334.729 191.475L335.219 192.663L335.459 193.853L335.71 195.172V197.704L335.554 198.953L335.267 200.225L334.968 201.533L334.525 202.805L334.046 204.112L333.46 205.302L332.825 206.562L332.132 207.822L331.401 209.012L330.659 210.271L329.834 211.461L328.995 212.649L328.122 213.838L327.236 215.027L326.351 216.145L325.478 217.215L324.544 218.333L323.706 219.402L322.88 220.426L322.007 221.4L321.217 222.375L320.427 223.29L319.744 224.182L319.015 224.991L320.726 225.978L322.294 227.096L323.658 228.355L324.986 229.688L326.184 231.197L327.309 232.802L328.338 234.515L329.367 236.215L330.301 237.975L331.27 239.864L332.203 241.72L333.196 243.562L334.166 245.405L335.195 247.212L336.32 249.008L337.517 250.755L339.037 250.315L340.7 249.982L342.268 249.543L343.979 249.15L345.691 248.711L347.414 248.33L349.174 247.938L350.992 247.498L352.8 247.105L354.667 246.677L356.558 246.285L358.473 245.893L360.436 245.548L362.397 245.262L364.349 244.87L366.455 244.632L368.562 244.383L370.62 244.097L372.666 243.895L374.82 243.752L376.986 243.609L379.081 243.407H381.295L383.497 243.348H385.927L388.177 243.407L390.426 243.55L392.677 243.692L394.987 243.883L397.285 244.133L399.596 244.525L401.988 244.858L407.134 237.95L409.085 215.717L423.973 215.372L427.203 283.772L416.229 285.615L407.77 257.08L403.256 254.846L400.863 255.57L398.553 256.308L396.16 257.08L393.767 257.77L391.469 258.495L389.074 259.221L386.681 259.958L384.431 260.684L382.037 261.36L379.739 262.146L377.489 262.87L375.18 263.644L372.882 264.428L370.68 265.201L368.382 265.985L366.18 266.711L363.87 267.531L361.668 268.376L359.418 269.195L357.264 270.075L355.014 270.943L352.812 271.871L350.598 272.751L348.443 273.714L346.241 274.641L344.099 275.664L341.886 276.639L339.731 277.709L337.625 278.779L335.423 279.896L333.316 280.966L331.162 282.155V291.203L331.258 293.142L331.354 295.043L331.449 296.993V298.943L331.545 300.929L331.641 302.926L331.736 304.876L331.88 306.814L331.94 308.764L332.035 310.654V312.557L315.819 313.829L310.602 277.482L323.922 251.421L294.732 235.453L321.062 205.635L297.7 185.768L296.91 185.09L296.181 184.21L295.498 183.234L294.804 182.046L294.121 180.786L293.487 179.371L292.793 177.908L292.171 176.304L291.524 174.604L290.89 172.903L290.244 171.107L289.669 169.3L289.035 167.458L288.341 165.556L287.707 163.712L287.072 161.857L286.378 160.062L285.744 158.255L285.074 156.507L284.284 154.808L283.59 153.154L282.812 151.645L282.082 150.229L281.304 148.874L280.406 147.686L279.581 146.615L278.743 145.7L277.773 144.963L276.84 144.332L275.858 143.999L274.829 143.81H273.752L231.673 177.326L251.121 207.156L250.535 207.774L249.996 208.465L249.362 209.047L248.775 209.678L248.142 210.26L247.495 210.795L246.86 211.33L246.215 211.817L245.544 212.353L244.897 212.792L244.264 213.232L243.63 213.565L242.936 213.969L242.301 214.195L241.715 214.445L241.08 214.694L239.884 212.888L238.579 211.057L237.311 209.345L235.994 207.644L234.665 205.991L233.301 204.445L231.877 202.876L230.453 201.414L228.98 199.964L227.521 198.549L226 197.182L224.48 195.873L222.925 194.565L221.346 193.294L219.729 192.104L218.162 190.915L216.51 189.786L214.835 188.681L213.123 187.491L211.412 186.469L209.736 185.399L207.977 184.389L206.218 183.413L204.398 182.438L202.592 181.463L200.784 180.536L199.025 179.608L197.158 178.693L195.304 177.813L193.389 176.945L191.533 176.065L189.618 175.186L202.783 149.112L221.932 164.485L270.497 135.95L270.054 134.203L269.563 132.455L269.072 130.743L268.63 129.055L268.092 127.354L267.565 125.689L267.026 124.037L266.439 122.385L265.842 120.779L265.207 119.127L264.621 117.51L263.986 115.964L263.353 114.359L262.718 112.754L262.023 111.149L261.39 109.639L260.707 108.034L260.025 106.477L259.331 104.871L258.648 103.361L257.907 101.756L257.225 100.198L256.542 98.5938L255.765 97.0957L255.07 95.4785L254.341 93.873L253.646 92.2686L252.916 90.7109L252.234 89.1055L251.504 87.4648L250.81 85.8486L250.08 84.1953L246.55 85.123L243.03 86.0029L239.597 86.918L236.125 87.8926L232.799 88.8203L229.459 89.748L226.192 90.7109L222.949 91.6982L219.67 92.6611L216.486 93.6836L213.351 94.7061L210.215 95.7754L207.092 96.8457L204.052 98.0352L201.012 99.2236L197.972 100.413L194.944 101.686L192 103.005L188.973 104.407L186.028 105.763L183.036 107.154L180.092 108.712L177.16 110.305L174.264 111.91L171.284 113.67L168.34 115.465L165.455 117.367L162.512 119.353L159.531 121.41L156.646 123.49L153.655 125.737L150.663 128.008L147.527 130.112L144.548 132.348L141.615 134.726L138.863 137.211L136.122 139.839L133.573 142.561L131.18 145.391L128.882 148.398L126.632 151.419L124.514 154.581L122.515 157.792L120.647 161.145L118.841 164.557L117.177 168.005L115.609 171.571L114.138 175.138L112.809 178.788L111.612 182.485L110.523 186.184L109.494 189.929L108.668 193.674L107.83 197.467L107.148 201.307L106.657 205.1L106.167 208.893L105.819 212.697L105.58 216.537L105.484 220.282V227.773L105.676 231.423L106.023 235.073L109.745 237.022L113.42 239.009L117.189 240.911L121.007 242.754L124.825 244.608L128.738 246.403L132.664 248.151L136.577 249.863L140.55 251.552L144.763 253.216L148.784 254.821L152.794 256.319L156.958 257.734L161.063 259.149L165.229 260.457L169.44 261.765L173.605 262.954L177.866 264.071L182.127 265.189L186.388 266.164L190.695 267.032L195.004 267.864L199.36 268.59L203.717 269.22L208.133 269.814L212.537 270.254L216.929 270.646L221.346 270.885L225.797 271.074L230.249 271.134L234.701 271.074L239.213 270.932L239.117 269.909V268.792L239.213 267.603L239.512 266.33L239.848 264.975L240.254 263.655L240.697 262.253L241.224 260.885L241.715 259.423L242.253 258.056L242.791 256.652L243.33 255.237L243.725 253.93L244.168 252.669L244.467 251.397L244.706 250.28L244.945 249.162L245.484 248.092L246.166 247.021L247.004 246.047L248.033 245.167L249.23 244.3L250.499 243.42L251.875 242.599L253.3 241.874L254.867 241.041L256.375 240.257L257.99 239.483L259.559 238.651L261.126 237.831L262.646 236.999L264.118 236.131L265.243 238.651L266.272 241.185L267.099 243.717L267.792 246.189L268.379 248.675L268.81 251.207L269.108 253.739L269.408 256.213L269.504 258.649V261.183L269.408 263.655L269.205 266.141L268.966 268.518L268.666 271.003L268.283 273.535L267.84 276.009L267.302 278.446L266.812 280.931L266.177 283.403L265.59 285.937L264.896 288.314L264.262 290.835L263.484 293.319L262.802 295.853L262.107 298.229L261.426 300.763L260.731 303.295L260.049 305.827L259.415 308.348L258.78 310.928L258.194 313.413L257.655 315.993L242.098 314.388L245.616 280.871L153.368 272.406L150.483 271.776L147.791 271.146L145.146 270.658L142.753 270.075L140.503 269.636L138.456 269.148L136.493 268.756L134.687 268.328L133.011 267.983L131.491 267.591L130.078 267.294L128.702 267.009L127.505 266.711L126.381 266.474L125.352 266.271L124.418 266.081L123.544 265.831L122.754 265.641L122.024 265.498L121.39 265.344L120.744 265.201L120.205 265.059L119.679 264.916L119.14 264.772L118.697 264.666L118.207 264.571L117.764 264.476L117.273 264.381L116.878 264.273L116.388 264.19L115.896 263.988L115.418 263.894L115.167 265.521L114.676 267.175L114.281 268.827L113.981 270.539L113.646 272.275L113.407 274.082L113.204 275.89L112.965 277.732L112.868 279.635L112.761 281.525L112.665 283.428V295.293L112.761 297.291V299.336L112.856 301.321L112.953 303.318L113.108 305.316L113.204 307.361L113.3 309.299L113.396 311.249L113.491 313.234L113.599 315.137V317.087L113.742 318.93V324.529L120.205 334.838L123.138 336.146L125.926 337.263L128.822 338.238L131.61 339.153L134.446 339.986L137.247 340.735L140.071 341.317L142.92 341.9L145.708 342.34L148.545 342.78L151.346 343.065L154.182 343.41L157.019 343.612L159.866 343.755L162.703 343.897L165.587 343.992H201.036L204.124 344.052L207.259 344.242L210.395 344.385L213.578 344.587L213.817 344.92L214.355 345.55L215.038 346.335L215.769 347.155L216.522 347.987L217.145 348.618L217.635 349.152L217.778 349.308L218.473 351.495L218.964 353.575L219.299 355.621L219.454 357.678V361.756L219.299 363.741L219.107 365.738L218.916 367.783L218.712 369.78L218.473 371.778L218.377 373.764L218.281 375.868V377.949L218.425 380.042L218.725 382.229H242.899L243.689 383.347L244.479 384.536L245.161 385.725L245.748 386.914L246.19 388.103L246.682 389.375L247.063 390.635L247.375 391.896L247.675 393.167L247.914 394.535L248.069 395.794L248.261 397.054L248.488 398.424V498.864L285.074 498.521H329.654L330.181 494.24L330.575 490.007L330.875 485.773L331.114 481.591L331.222 477.453V469.176L331.114 465.053L330.923 460.962L330.671 456.93L330.432 452.842L330.085 448.811L329.798 444.719L329.402 440.727L329.02 436.636L328.673 432.65L328.229 428.563L327.835 424.579L327.5 420.487L327.104 416.448L326.806 412.368L326.471 408.328L326.268 404.189L326.075 400.158L325.884 395.983V383.478L326.075 379.292L326.315 375.06L326.662 370.779L327.104 366.452L335.184 359.247L336.847 358.236L338.319 357.404L339.743 356.821L341.107 356.429L342.376 356.286H343.572L344.77 356.429L345.847 356.821L346.924 357.262L347.857 357.892L348.826 358.604L349.712 359.39L350.646 360.27L351.531 361.339L352.357 362.362L353.243 363.432L354.021 364.55L354.858 365.667L355.731 366.856L356.617 367.985L357.503 369.056L358.425 370.113L359.358 371.137L360.388 372.111L361.416 372.991L362.494 373.717L363.619 374.358L364.815 374.929L366.084 375.321L367.448 375.606L368.873 375.714L370.44 375.606L372.834 375.369L375.228 375.024L377.621 374.549L380.015 374.014L382.408 373.288L384.706 372.504L387.004 371.576L389.266 370.613L391.563 369.531L393.814 368.342L396.029 367.082L398.217 365.81L400.385 364.348L402.49 362.896L404.635 361.387L406.691 359.781L408.702 358.141L410.712 356.429L412.722 354.729L414.673 352.922L416.529 351.126L418.35 349.331L420.154 347.477L421.928 345.622L423.685 343.731L425.3 341.876L426.966 339.986L428.641 338.143L430.161 336.288L431.583 334.434L433.056 332.591L434.422 330.783L438.012 326.218L441.396 321.462L444.437 316.6L447.178 311.499L449.57 306.279L451.727 301.036L453.642 295.483L455.305 289.942L456.667 284.308L457.863 278.564L458.74 272.739L459.432 266.794L459.913 260.85L460.209 254.821L460.261 248.65L460.067 242.623L459.767 236.5L459.277 230.412L458.594 224.277L457.769 218.249L456.742 212.174L455.546 206.146L454.262 200.201L452.841 194.315L451.332 188.431L449.618 182.688L447.849 177.052L445.945 171.417L443.982 165.959L441.925 160.609L439.769 155.449L437.569 150.349L435.713 148.779L433.846 147.472L431.989 146.401L430.125 145.533L428.27 144.844L426.449 144.368L424.593 144.071L422.823 143.917H421.015L419.151 144.071L417.354 144.309L415.534 144.701L413.717 145.142L411.908 145.724L410.1 146.401L408.331 147.043L406.475 147.805L404.67 148.589L402.85 149.421L400.993 150.254L399.177 151.074L397.32 151.906L395.465 152.691L393.597 153.356L391.732 154.046L389.828 154.677L387.913 155.211L386.011 155.699L384.096 155.984L382.192 156.281L380.23 156.377H378.268L369.256 146.306L390.903 123.716L390.271 121.873L389.481 120.03L388.68 118.14L387.698 116.297L386.501 114.49L385.305 112.694L384.036 110.935L382.611 109.188L381.14 107.487L379.584 105.882L377.956 104.229L376.197 102.577L374.438 101.02L372.583 99.4619L370.716 98.0469L368.753 96.5967L366.802 95.2285L364.792 93.9092L362.793 92.7207L360.675 91.5312L358.568 90.3418L356.521 89.3193L354.367 88.3447L352.262 87.4297L350.155 86.5977L348.049 85.8125L345.942 85.1826L343.884 84.5996L341.825 84.0645L339.826 83.7197L337.864 83.4229L335.901 83.1973L334.776 84.8965Z" fill="#C0022C"></path>
<path d="M987.056 519.394C983.466 519.394 979.943 518.79 976.488 517.574C973.032 516.322 969.889 514.415 967.062 511.856L973.186 504.518C975.343 506.268 977.542 507.662 979.785 508.689C982.072 509.723 984.564 510.237 987.257 510.237C989.413 510.237 991.072 509.858 992.241 509.095C993.449 508.286 994.057 507.188 994.057 505.798V505.664C994.057 504.988 993.923 504.404 993.654 503.91C993.429 503.373 992.955 502.88 992.241 502.429C991.565 501.983 990.602 501.533 989.346 501.083C988.134 500.633 986.538 500.163 984.564 499.669C982.186 499.084 980.034 498.437 978.103 497.718C976.172 496.999 974.533 496.123 973.186 495.092C971.844 494.014 970.789 492.691 970.023 491.119C969.305 489.548 968.945 487.597 968.945 485.263V485.129C968.945 482.976 969.352 481.045 970.158 479.339C970.967 477.586 972.089 476.085 973.526 474.829C975.003 473.57 976.756 472.606 978.774 471.935C980.792 471.263 983.016 470.924 985.44 470.924C988.896 470.924 992.063 471.441 994.934 472.472C997.848 473.507 1000.52 474.983 1002.95 476.919L997.556 484.726C995.447 483.292 993.386 482.167 991.364 481.357C989.346 480.504 987.328 480.078 985.302 480.078C983.284 480.078 981.76 480.484 980.729 481.294C979.738 482.052 979.244 483.02 979.244 484.185V484.319C979.244 485.085 979.379 485.756 979.651 486.341C979.963 486.878 980.504 487.372 981.266 487.822C982.028 488.272 983.059 488.695 984.362 489.101C985.709 489.504 987.391 489.974 989.413 490.515C991.79 491.143 993.899 491.862 995.739 492.667C997.627 493.429 999.195 494.373 1000.45 495.499C1001.75 496.573 1002.72 497.852 1003.35 499.333C1004.02 500.814 1004.36 502.587 1004.36 504.653V504.787C1004.36 507.121 1003.93 509.21 1003.08 511.046C1002.22 512.839 1001.04 514.367 999.511 515.623C997.986 516.835 996.166 517.779 994.057 518.455C991.948 519.079 989.615 519.394 987.056 519.394ZM1014.9 471.599H1026.08L1038.46 491.522L1050.85 471.599H1062.03V518.719H1051.73V487.956L1038.46 508.084H1038.2L1025.07 488.157V518.719H1014.9V471.599ZM1101.96 498.994L1095.69 483.715L1089.43 498.994H1101.96ZM1091.05 471.263H1100.61L1120.81 518.719H1109.97L1105.66 508.152H1085.73L1081.43 518.719H1070.85L1091.05 471.263ZM1150.49 494.484C1153.06 494.484 1155 493.88 1156.36 492.667C1157.75 491.459 1158.44 489.84 1158.44 487.822V487.688C1158.44 485.444 1157.72 483.762 1156.28 482.637C1154.85 481.519 1152.85 480.954 1150.29 480.954H1139.99V494.484H1150.49ZM1129.63 471.599H1151.17C1157.14 471.599 1161.72 473.191 1164.9 476.377C1167.6 479.071 1168.94 482.66 1168.94 487.147V487.281C1168.94 491.1 1168 494.215 1166.11 496.64C1164.28 499.021 1161.85 500.767 1158.85 501.892L1170.35 518.719H1158.24L1148.14 503.642H1148.01H1139.99V518.719H1129.63V471.599ZM1190.8 481.16H1176.46V471.599H1215.5V481.16H1201.16V518.719H1190.8V481.16ZM970.296 558.608H1006.18V568.031H980.658V578.061H1003.14V587.488H980.658V605.729H970.296V558.608ZM1035.68 606.467C1029.35 606.467 1024.37 604.721 1020.73 601.219C1017.1 597.716 1015.28 592.487 1015.28 585.533V558.608H1025.65V585.265C1025.65 589.127 1026.55 592.041 1028.34 594.016C1030.14 595.943 1032.62 596.914 1035.81 596.914C1039 596.914 1041.49 595.97 1043.29 594.083C1045.08 592.199 1045.98 589.372 1045.98 585.6V558.608H1056.34V585.197C1056.34 588.787 1055.85 591.907 1054.86 594.557C1053.92 597.202 1052.55 599.426 1050.76 601.219C1048.96 602.972 1046.78 604.295 1044.23 605.191C1041.67 606.044 1038.82 606.467 1035.68 606.467ZM1089.32 581.493C1091.88 581.493 1093.83 580.889 1095.18 579.677C1096.57 578.468 1097.27 576.849 1097.27 574.831V574.697C1097.27 572.454 1096.55 570.772 1095.11 569.646C1093.67 568.525 1091.68 567.964 1089.12 567.964H1078.82V581.493H1089.32ZM1068.45 558.608H1089.99C1095.96 558.608 1100.54 560.2 1103.73 563.387C1106.42 566.08 1107.77 569.67 1107.77 574.156V574.29C1107.77 578.109 1106.83 581.225 1104.94 583.645C1103.1 586.031 1100.68 587.776 1097.67 588.902L1109.18 605.729H1097.06L1086.97 590.651H1086.83H1078.82V605.729H1068.45V558.608ZM1118.65 558.608H1128.21L1150.29 587.622V558.608H1160.52V605.729H1151.7L1128.88 575.771V605.729H1118.65V558.608ZM1200.44 586.003L1194.19 570.724L1187.92 586.003H1200.44ZM1189.54 558.269H1199.1L1219.3 605.729H1208.45L1204.15 595.161H1184.22L1179.91 605.729H1169.34L1189.54 558.269ZM1250.2 606.538C1246.74 606.538 1243.53 605.91 1240.57 604.65C1237.61 603.395 1235.05 601.689 1232.89 599.536C1230.74 597.337 1229.06 594.754 1227.84 591.792C1226.64 588.83 1226.03 585.667 1226.03 582.303V582.168C1226.03 578.8 1226.64 575.66 1227.84 572.742C1229.06 569.78 1230.74 567.198 1232.89 565.002C1235.05 562.759 1237.63 561.006 1240.64 559.75C1243.64 558.447 1246.96 557.799 1250.6 557.799C1252.8 557.799 1254.8 557.977 1256.59 558.336C1258.43 558.695 1260.09 559.189 1261.57 559.817C1263.05 560.445 1264.42 561.211 1265.68 562.107C1266.94 563.004 1268.1 563.991 1269.18 565.069L1262.58 572.675C1260.74 571.016 1258.86 569.713 1256.93 568.773C1255.05 567.829 1252.91 567.36 1250.53 567.36C1248.56 567.36 1246.72 567.739 1245.01 568.501C1243.35 569.267 1241.92 570.321 1240.7 571.664C1239.49 573.015 1238.55 574.582 1237.88 576.379C1237.2 578.129 1236.87 580.016 1236.87 582.034V582.168C1236.87 584.186 1237.2 586.094 1237.88 587.891C1238.55 589.683 1239.47 591.255 1240.64 592.602C1241.85 593.948 1243.28 595.027 1244.94 595.832C1246.65 596.598 1248.51 596.977 1250.53 596.977C1253.23 596.977 1255.49 596.484 1257.33 595.497C1259.22 594.509 1261.08 593.163 1262.92 591.457L1269.51 598.123C1268.31 599.426 1267.05 600.591 1265.75 601.621C1264.44 602.656 1263.01 603.553 1261.44 604.315C1259.91 605.033 1258.23 605.574 1256.39 605.934C1254.55 606.333 1252.48 606.538 1250.2 606.538ZM1279.36 558.608H1314.91V567.829H1289.66V577.386H1311.88V586.607H1289.66V596.507H1315.24V605.729H1279.36V558.608ZM1342.77 606.404C1339.18 606.404 1335.66 605.8 1332.21 604.583C1328.75 603.327 1325.61 601.424 1322.78 598.861L1328.9 591.524C1331.06 593.277 1333.26 594.667 1335.5 595.698C1337.79 596.733 1340.28 597.246 1342.98 597.246C1345.13 597.246 1346.79 596.867 1347.96 596.105C1349.17 595.295 1349.78 594.197 1349.78 592.803V592.669C1349.78 591.998 1349.64 591.413 1349.37 590.92C1349.15 590.379 1348.67 589.885 1347.96 589.439C1347.28 588.992 1346.32 588.542 1345.06 588.092C1343.85 587.642 1342.26 587.172 1340.28 586.678C1337.9 586.094 1335.75 585.446 1333.82 584.727C1331.89 584.005 1330.25 583.132 1328.9 582.097C1327.56 581.023 1326.5 579.7 1325.74 578.129C1325.02 576.557 1324.66 574.606 1324.66 572.272V572.138C1324.66 569.982 1325.07 568.055 1325.88 566.349C1326.69 564.595 1327.8 563.095 1329.24 561.839C1330.72 560.579 1332.47 559.615 1334.49 558.944C1336.51 558.269 1338.73 557.933 1341.15 557.933C1344.61 557.933 1347.78 558.447 1350.65 559.481C1353.57 560.512 1356.24 561.993 1358.66 563.924L1353.27 571.735C1351.17 570.298 1349.1 569.176 1347.08 568.367C1345.06 567.514 1343.04 567.087 1341.02 567.087C1339 567.087 1337.48 567.494 1336.44 568.299C1335.46 569.062 1334.96 570.025 1334.96 571.194V571.328C1334.96 572.094 1335.1 572.766 1335.37 573.346C1335.68 573.887 1336.22 574.381 1336.98 574.831C1337.75 575.281 1338.78 575.704 1340.08 576.111C1341.42 576.513 1343.11 576.983 1345.13 577.524C1347.51 578.152 1349.62 578.867 1351.46 579.677C1353.34 580.439 1354.91 581.383 1356.17 582.504C1357.47 583.582 1358.44 584.862 1359.07 586.343C1359.73 587.823 1360.07 589.597 1360.07 591.658V591.792C1360.07 594.126 1359.64 596.215 1358.79 598.055C1357.94 599.848 1356.75 601.377 1355.23 602.632C1353.7 603.845 1351.88 604.785 1349.78 605.46C1347.66 606.088 1345.33 606.404 1342.77 606.404Z" fill="#C0022C"></path>
</svg>