<svg width="20" height="20" viewBox="0 0 20 20" fill="none" xmlns="http://www.w3.org/2000/svg">
<path d="M3.33366 16.6668C2.87533 16.6668 2.48296 16.5036 2.15658 16.1772C1.83019 15.8509 1.66699 15.4585 1.66699 15.0002V5.00016C1.66699 4.54183 1.83019 4.14947 2.15658 3.82308C2.48296 3.49669 2.87533 3.3335 3.33366 3.3335H8.33366L10.0003 5.00016H16.667C17.1253 5.00016 17.5177 5.16336 17.8441 5.48975C18.1705 5.81614 18.3337 6.2085 18.3337 6.66683V15.0002C18.3337 15.4585 18.1705 15.8509 17.8441 16.1772C17.5177 16.5036 17.1253 16.6668 16.667 16.6668H3.33366ZM3.33366 15.0002H16.667V6.66683H9.31283L7.64616 5.00016H3.33366V15.0002Z" fill="#FF535F"/>
</svg>
