<svg width="16" height="16" viewBox="0 0 16 16" fill="none" xmlns="http://www.w3.org/2000/svg">
<path d="M1.33301 9.66687L7.76116 12.8809C7.84862 12.9247 7.89234 12.9465 7.93821 12.9551C7.97883 12.9628 8.02052 12.9628 8.06114 12.9551C8.10701 12.9465 8.15073 12.9247 8.23819 12.8809L14.6663 9.66687M1.33301 6.33354L7.76116 3.11946C7.84862 3.07574 7.89234 3.05387 7.93821 3.04527C7.97883 3.03765 8.02052 3.03765 8.06114 3.04527C8.10701 3.05387 8.15073 3.07574 8.23819 3.11946L14.6663 6.33354L8.23819 9.54762C8.15073 9.59134 8.10701 9.61321 8.06114 9.62181C8.02052 9.62943 7.97883 9.62943 7.93821 9.62181C7.89234 9.61321 7.84862 9.59134 7.76116 9.54762L1.33301 6.33354Z" stroke="#FF535F" stroke-width="1.33333" stroke-linecap="round" stroke-linejoin="round"/>
</svg>
